<svg width="216" height="30" viewBox="0 0 216 30" fill="none" xmlns="http://www.w3.org/2000/svg">
<path d="M172.802 0.752277C175.846 0.752277 178.883 0.733003 181.927 0.765132C182.777 0.771558 183.825 0.752279 183.916 1.90894C184.021 3.30336 182.856 3.34834 181.887 3.35476C175.695 3.38047 169.503 3.3612 163.312 3.36762C162.382 3.36762 161.387 3.21339 161.302 2.1981C161.184 0.867944 162.369 0.758707 163.357 0.745855C166.506 0.7073 169.654 0.733 172.809 0.733C172.802 0.733 172.802 0.745852 172.802 0.752277Z" fill="white"/>
<path d="M8.74551 29.0464C6.67063 29.0464 4.60228 29.0988 2.53395 29.0202C1.56524 28.9809 -0.00565451 29.4653 0.059799 27.7897C0.118707 26.3039 1.6176 26.5199 2.64522 26.5068C6.34989 26.4479 10.0611 26.5199 13.7658 26.4479C19.4668 26.3301 23.7998 22.8741 24.8733 17.7033C26.0711 11.9238 23.5773 7.00164 18.2756 4.56676C16.2007 3.61114 14.008 3.84678 11.8415 3.81405C8.56879 3.76169 5.30263 3.80751 2.02995 3.73551C1.05469 3.71587 -0.103831 3.5326 0.00743999 2.17771C0.0990751 1.065 1.1856 0.927552 2.02341 0.940642C7.03063 1.0061 12.0771 0.469375 17.0319 1.43154C23.6689 2.72098 28.0609 9.0307 27.5569 16.296C27.0856 23.0705 21.8559 28.5228 15.2909 28.9548C13.1178 29.0988 10.9317 28.9744 8.75206 28.9744C8.74551 29.0006 8.74551 29.0268 8.74551 29.0464Z" fill="#8EB4EC"/>
<path d="M38.5627 12.9256L44.6241 13.0335C47.3793 13.0576 49.5719 13.8374 51.2021 15.373C52.7404 16.7647 53.5096 18.5162 53.5096 20.6277C53.5096 22.8591 52.6141 24.7186 50.8232 26.2063C48.6421 27.9818 45.4507 28.8696 41.249 28.8696C37.8739 28.8696 35.004 28.1738 32.639 26.7821C31.8125 26.3263 30.9859 25.7264 30.1594 24.9826C29.4348 23.8437 30.7188 22.5035 31.6059 22.9671C32.3865 23.6629 33.0867 24.1908 33.7067 24.5507C35.7501 25.7984 38.2642 26.4223 41.249 26.4223C44.1419 26.4223 46.4609 25.9543 48.2058 25.0186C50.1803 23.9629 51.1676 22.4992 51.1676 20.6277C51.1676 19.308 50.6166 18.1563 49.5145 17.1726C48.2518 16.0688 46.5757 15.5049 44.4863 15.481L38.5627 15.373C36.2667 15.325 34.4299 14.8691 33.0523 14.0053C31.2385 12.8536 30.3316 11.0781 30.3316 8.67866C30.3316 6.63912 31.1811 4.87558 32.8801 3.38795C34.9006 1.61239 37.7362 0.724609 41.3868 0.724609C44.0042 0.724609 46.3805 1.25248 48.5158 2.30822C49.1816 2.62014 49.9048 3.04004 50.6855 3.56791L51.4431 4.14377C51.4202 4.11977 51.4312 4.13462 51.4431 4.14377C52.5466 4.98236 51.2625 7.09075 49.9785 6.08557C48.6946 5.08039 48.7913 5.25949 48.7913 5.25949C47.9877 4.77961 47.3334 4.43169 46.8282 4.21575C45.1751 3.51992 43.4187 3.172 41.5589 3.172C38.643 3.172 36.3586 3.81984 34.7054 5.11552C33.3508 6.17126 32.6735 7.37096 32.6735 8.71466C32.6735 11.4979 34.6366 12.9016 38.5627 12.9256Z" fill="#8EB4EC"/>
<path d="M59.1055 26.2746C61.9555 27.6392 65.4142 28.3215 69.4818 28.3215V25.9218C65.8846 25.9218 62.8548 25.3101 60.3922 24.0867C59.645 23.7338 58.8012 23.2162 57.8604 22.5339C56.7913 22.0793 55.244 23.3935 56.1172 24.5102C57.1133 25.2395 58.1094 25.8276 59.1055 26.2746Z" fill="#8EB4EC"/>
<path d="M59.6035 13.7467C61.2637 14.5937 63.4774 15.0407 66.2443 15.0877L69.466 15.1355V12.7347L66.2443 12.688C61.5128 12.6644 59.147 11.2881 59.147 8.55905C59.147 7.24152 59.9632 6.06519 61.5957 5.03001C63.5487 3.78467 66.2326 3.1497 69.6475 3.12508V0.724609C65.2482 0.724609 61.831 1.5951 59.396 3.33608C57.3485 4.79474 56.3247 6.52394 56.3247 8.52375C56.3247 10.8764 57.4177 12.6174 59.6035 13.7467Z" fill="#8EB4EC"/>
<path d="M82.2985 15.1056C80.6687 13.5981 78.476 12.8325 75.7204 12.8089L72.3325 12.7497V15.1535L75.5829 15.2117C77.6722 15.2352 79.3485 15.7888 80.6111 16.8724C81.7133 17.8381 82.2644 18.9688 82.2644 20.2644C82.2644 22.1018 81.2767 23.5387 79.302 24.5752C77.5577 25.4939 75.2386 25.9532 72.3456 25.9532V28.356C76.547 28.356 79.7386 27.4843 81.9195 25.7412C83.7103 24.2807 84.6057 22.4551 84.6057 20.2644C84.6057 18.1915 83.8366 16.4719 82.2985 15.1056Z" fill="white"/>
<path d="M79.6122 2.27932C77.4771 1.24284 75.1005 0.724609 72.483 0.724609V3.13564C74.3432 3.13564 76.2715 3.4689 77.9248 4.15203C78.4295 4.36403 79.084 4.7056 79.8878 5.17672C79.8878 5.17672 79.7909 5.00089 81.0751 5.98772C82.3593 6.97456 83.6429 4.90465 82.5393 4.08136L81.782 3.51601C81.0012 2.99778 80.2779 2.58554 79.6122 2.27932Z" fill="white"/>
<path d="M95.4361 21.3433C95.4361 19.2117 95.4361 18.0537 95.4361 15.4187C94.2972 14.1335 93.3913 12.3081 91.6005 10.5735C89.65 8.5815 88.0267 6.26817 86.2726 4.0898C85.677 3.35082 84.7672 2.48975 85.9257 1.65439C86.9729 0.902559 87.706 1.77648 88.3409 2.56044C90.7103 5.48422 93.1452 8.36302 95.4426 11.3446C95.9748 12.0352 96.5881 12.8483 96.9153 13.1696C97.2426 12.7776 97.6864 12.1631 98.2506 11.3768C100.195 8.67146 102.335 6.10753 104.469 3.55003C105.274 2.59257 105.935 0.504148 107.591 1.78933C109.024 2.90101 107.25 4.03839 106.563 4.9573C104.567 7.62404 102.571 10.3165 100.325 12.7776C99.6415 13.5282 98.8789 14.4548 98.0542 15.4187C98.0542 16.9283 98.0542 17.6523 98.0542 19.1778C98.0542 21.7033 98.0411 24.3121 97.9822 26.876C97.9626 27.8399 97.943 29.0158 96.5619 28.9323C95.4361 28.8616 95.4426 27.8078 95.4361 26.9403C95.4295 25.2246 95.4361 23.5153 95.4361 21.3433Z" fill="white"/>
<path d="M212.59 5.23685C208.99 8.74538 205.927 11.592 203.04 14.6058C201.221 16.1866 201.221 16.1866 199.335 14.5929C196.403 11.4635 193.379 8.41766 190.395 5.33323C189.944 4.86761 190.093 4.94125 189.439 4.29866C189.439 10.4225 189.589 18.0244 189.426 24.1418C189.327 27.8383 189.86 28.2544 188.084 28.2544C186.721 28.2544 186.986 27.5606 186.932 24.2189C186.821 17.3754 186.873 10.5318 186.886 3.68821C186.886 2.76931 186.52 1.61907 187.613 1.0793C188.896 0.44956 189.563 1.56767 190.316 2.29379C193.34 5.224 196.429 8.08351 199.342 11.1165C200.065 11.8709 200.566 12.331 201.221 12.9736C201.875 12.331 202.257 11.8582 202.916 11.1487C205.842 7.99355 209.003 5.04407 212.06 2.00462C212.675 1.39416 213.264 0.629483 214.259 0.976481C215.352 1.35561 215.038 2.38375 215.044 3.18699C215.071 10.8852 215.077 18.5834 215.051 26.2816C215.051 27.1491 215.385 28.4793 213.833 28.3765C212.505 28.2865 212.596 27.0913 212.596 26.1403C212.583 19.4252 212.59 12.7037 212.59 5.23685Z" fill="white"/>
<path d="M146.311 16.0063C146.311 12.5813 146.239 10.0816 146.239 5.58349C146.269 4.71004 146.239 3.98344 146.239 3.34086C145.584 3.34086 144.675 3.34086 143.693 3.34086C141.402 3.34086 139.884 3.31513 137.92 3.27015C137.03 3.25087 136.107 3.12236 136.133 1.91429C136.153 0.860438 137.024 0.751203 137.757 0.744777C144.191 0.712648 150.618 0.725493 157.052 0.738345C157.87 0.738345 158.636 0.976104 158.676 1.93356C158.721 3.11592 157.798 3.23802 156.889 3.27657C156.561 3.28942 156.234 3.27658 155.907 3.28943C151.095 3.15412 149.257 3.34086 148.93 3.34086C148.93 3.66215 148.998 7.01389 148.858 10.7242C148.858 15.6464 148.962 20.9028 148.929 25.8251C148.922 26.9303 149.328 28.601 147.705 28.6717C146.01 28.7424 146.35 27.0717 146.337 25.9536C146.291 22.6378 146.311 19.322 146.311 16.0063Z" fill="white"/>
<path d="M172.807 15.9232C169.764 15.9232 166.72 15.9232 163.676 15.9232C162.668 15.9232 161.516 15.8975 161.556 14.593C161.595 13.3143 162.747 13.3271 163.761 13.3271C169.849 13.3336 175.936 13.3207 182.016 13.3271C182.972 13.3271 184.209 13.1922 184.281 14.5095C184.373 16.1353 182.979 15.8975 181.931 15.9039C178.894 15.9361 175.851 15.9168 172.807 15.9232Z" fill="white"/>
<path d="M172.767 28.626C169.835 28.626 166.903 28.6453 163.977 28.6196C162.91 28.6132 161.529 28.7481 161.568 27.2252C161.601 25.94 162.858 26.0235 163.826 26.0171C169.796 26.0043 175.772 25.9978 181.741 26.0235C182.775 26.03 184.215 25.8115 184.124 27.3987C184.032 28.928 182.592 28.6003 181.571 28.6132C178.632 28.6453 175.7 28.626 172.767 28.626Z" fill="white"/>
<path d="M118.856 13.0643L124.917 13.1702C127.673 13.1938 129.865 13.9594 131.495 15.467C133.033 16.8332 133.802 18.5528 133.802 20.6257C133.802 22.8164 132.907 24.642 131.116 26.1025C128.935 27.8457 125.744 28.7173 121.542 28.7173C118.167 28.7173 115.297 28.0341 112.932 26.6679C112.106 26.2203 111.279 25.6314 110.452 24.9012C109.728 23.7831 111.012 22.4673 111.899 22.9225C112.68 23.6056 113.38 24.1239 114 24.4772C116.043 25.7021 118.557 26.3146 121.542 26.3146C124.435 26.3146 126.754 25.8552 128.499 24.9365C130.473 23.9 131.461 22.4632 131.461 20.6257C131.461 19.3301 130.91 18.1994 129.808 17.2337C128.545 16.1501 126.869 15.5965 124.779 15.573L118.856 15.467C116.56 15.4199 114.723 14.9723 113.345 14.1243C111.532 12.9936 110.624 11.2504 110.624 8.89481C110.624 6.8925 111.474 5.16115 113.173 3.70067C115.194 1.95751 118.029 1.08594 121.68 1.08594C124.297 1.08594 126.674 1.60417 128.809 2.64064C129.474 2.94687 130.198 3.3591 130.979 3.87734L131.736 4.44269C131.713 4.41913 131.724 4.43371 131.736 4.44269C132.839 5.26597 131.556 7.33589 130.272 6.34905C128.987 5.36222 129.084 5.53805 129.084 5.53805C128.281 5.06693 127.626 4.72536 127.121 4.51335C125.468 3.83022 123.712 3.48866 121.852 3.48866C118.936 3.48866 116.651 4.12468 114.999 5.39671C113.644 6.43318 112.966 7.61098 112.966 8.93015C112.966 11.6626 114.929 13.0407 118.856 13.0643Z" fill="white"/>
</svg>
