<svg width="37" height="36" viewBox="0 0 37 36" fill="none" xmlns="http://www.w3.org/2000/svg">
<path d="M18.5799 0.0718994C8.78244 0.0718994 0.839844 8.01449 0.839844 17.812C0.839844 26.5991 7.23548 33.8764 15.6212 35.2856V21.513H11.3418V16.5568H15.6212V12.9023C15.6212 8.66206 18.211 6.35136 21.9942 6.35136C23.8061 6.35136 25.3632 6.48637 25.8152 6.54584V10.978L23.1913 10.9793C21.1344 10.9793 20.7378 11.9566 20.7378 13.3912V16.5543H25.6459L25.0058 21.5105H20.7378V35.4041C29.515 34.3358 36.3197 26.8732 36.3197 17.8069C36.3197 8.01449 28.3771 0.0718994 18.5799 0.0718994Z" fill="#2E2E2E"/>
</svg>
