<svg width="37" height="36" viewBox="0 0 37 36" fill="none" xmlns="http://www.w3.org/2000/svg">
<g clip-path="url(#clip0_9_79)">
<path d="M16.21 21.0632L21.9805 17.7397L16.21 14.4161V21.0632Z" fill="#2E2E2E"/>
<path d="M18.4196 0C8.62363 0 0.679688 7.94394 0.679688 17.7399C0.679688 27.5359 8.62363 35.4799 18.4196 35.4799C28.2156 35.4799 36.1596 27.5359 36.1596 17.7399C36.1596 7.94394 28.2156 0 18.4196 0ZM29.5044 17.7581C29.5044 17.7581 29.5044 21.3558 29.048 23.0907C28.7922 24.0403 28.0435 24.789 27.0939 25.0445C25.359 25.5012 18.4196 25.5012 18.4196 25.5012C18.4196 25.5012 11.4984 25.5012 9.74537 25.0264C8.79579 24.7708 8.04706 24.0218 7.79126 23.0723C7.3346 21.3558 7.3346 17.7399 7.3346 17.7399C7.3346 17.7399 7.3346 14.1425 7.79126 12.4076C8.04679 11.458 8.81392 10.6909 9.74537 10.4354C11.4802 9.97872 18.4196 9.97872 18.4196 9.97872C18.4196 9.97872 25.359 9.97872 27.0939 10.4535C28.0435 10.709 28.7922 11.458 29.048 12.4076C29.5228 14.1425 29.5044 17.7581 29.5044 17.7581Z" fill="#2E2E2E"/>
</g>
<defs>
<clipPath id="clip0_9_79">
<rect x="0.679688" width="35.4799" height="35.4799" fill="white"/>
</clipPath>
</defs>
</svg>
